<svg width="36" height="52" viewBox="0 0 36 52" fill="none" xmlns="http://www.w3.org/2000/svg">
<path d="M35.1193 9.27016C35.1188 8.39843 34.8233 7.55252 34.2811 6.86999C33.7388 6.18746 32.9815 5.70846 32.1325 5.51086L31.1541 1.95755C30.9755 1.38298 30.6155 0.881738 30.1281 0.528945C29.6407 0.176151 29.0521 -0.00920232 28.4504 0.00065776H6.79585C6.19654 -0.0124982 5.60958 0.172013 5.12558 0.525698C4.64159 0.879384 4.2875 1.38257 4.11799 1.95755L3.13954 5.51086C2.25955 5.73279 1.48256 6.25042 0.938783 6.97702C0.395004 7.70362 0.117476 8.59504 0.152704 9.5019C0.150566 10.3247 0.415483 11.1259 0.907651 11.7852C1.39982 12.4445 2.09265 12.9263 2.88206 13.1582L3.13954 20.2906C2.72729 20.3575 2.34784 20.5563 2.0581 20.857C1.87611 21.049 1.73449 21.2755 1.64161 21.5232C1.54873 21.7709 1.50649 22.0347 1.51738 22.299L2.13535 37.1302C2.15411 37.5859 2.33172 38.0208 2.63738 38.3594C2.94305 38.698 3.35753 38.919 3.80901 38.9841L4.015 44.7003C4.06802 46.4309 4.79486 48.0723 6.04061 49.2748C7.28636 50.4773 8.95249 51.1456 10.6839 51.1374H24.5624C26.2979 51.1511 27.9698 50.4853 29.2208 49.2824C30.4718 48.0795 31.2026 46.4349 31.257 44.7003L31.463 38.9841C31.9096 38.913 32.3178 38.6895 32.6182 38.3516C32.9187 38.0136 33.0928 37.582 33.111 37.1302L33.7289 22.299C33.7398 22.0347 33.6976 21.7709 33.6047 21.5232C33.5118 21.2755 33.3702 21.049 33.1882 20.857C32.9087 20.5566 32.5374 20.3574 32.1325 20.2906L32.39 13.1582C33.2051 12.8939 33.9122 12.3717 34.4045 11.6704C34.8968 10.969 35.1477 10.1266 35.1193 9.27016ZM6.79585 2.57552L28.6564 2.65277L29.4289 5.40787H5.89465L6.79585 2.57552ZM28.6822 44.623C28.6499 45.689 28.1998 46.6994 27.429 47.4365C26.6583 48.1735 25.6287 48.5779 24.5624 48.5626H10.6839C9.62144 48.5731 8.59729 48.1663 7.83168 47.4296C7.06607 46.6929 6.62017 45.6851 6.58986 44.623L6.38387 39.0098H28.8882L28.6822 44.623ZM12.2288 29.6373C12.2288 28.5679 12.5459 27.5225 13.1401 26.6332C13.7342 25.744 14.5787 25.051 15.5668 24.6417C16.5548 24.2325 17.642 24.1254 18.6909 24.334C19.7398 24.5427 20.7033 25.0576 21.4595 25.8139C22.2157 26.5701 22.7307 27.5335 22.9393 28.5824C23.148 29.6313 23.0409 30.7185 22.6316 31.7066C22.2224 32.6946 21.5293 33.5391 20.6401 34.1333C19.7509 34.7274 18.7055 35.0445 17.636 35.0445C16.2019 35.0445 14.8266 34.4749 13.8125 33.4608C12.7985 32.4468 12.2288 31.0714 12.2288 29.6373ZM29.5576 20.2391H5.71441L5.45692 13.3642H29.7894L29.5576 20.2391ZM31.257 10.7893H4.015C3.82755 10.783 3.64349 10.7376 3.47466 10.6559C3.30582 10.5742 3.15596 10.4581 3.0347 10.315C2.91344 10.1719 2.82347 10.005 2.77057 9.82508C2.71768 9.64513 2.70303 9.45611 2.72757 9.27016C2.72757 8.92872 2.86321 8.60125 3.10465 8.35981C3.34609 8.11837 3.67355 7.98273 4.015 7.98273H31.257C31.4437 7.99133 31.6266 8.03831 31.7943 8.12074C31.962 8.20318 32.1109 8.3193 32.2317 8.46186C32.3525 8.60441 32.4426 8.77035 32.4965 8.94929C32.5503 9.12824 32.5666 9.31636 32.5445 9.5019C32.5445 9.84335 32.4088 10.1708 32.1674 10.4123C31.926 10.6537 31.5985 10.7893 31.257 10.7893Z" fill="#8C4C3E"/>
</svg>
