<svg width="165" height="52" viewBox="0 0 165 52" fill="none" xmlns="http://www.w3.org/2000/svg">
<path d="M4.63475 31.2233C3.91379 31.2233 3.26493 31.1358 2.68816 30.9607C2.11139 30.7753 1.56037 30.456 1.03509 30.0028C0.901202 29.8895 0.798208 29.7608 0.726111 29.6166C0.654015 29.4724 0.617967 29.3282 0.617967 29.184C0.617967 28.9471 0.700363 28.7411 0.865154 28.5661C1.04024 28.3807 1.25653 28.288 1.51402 28.288C1.70971 28.288 1.8848 28.3498 2.03929 28.4734C2.43067 28.7926 2.8169 29.0347 3.19798 29.1995C3.58936 29.3643 4.06828 29.4467 4.63475 29.4467C5.01583 29.4467 5.36601 29.39 5.6853 29.2767C6.00458 29.1531 6.26207 28.9935 6.45776 28.7978C6.65345 28.5918 6.75129 28.3601 6.75129 28.1026C6.75129 27.7936 6.6586 27.531 6.47321 27.3147C6.28782 27.0984 6.00458 26.9181 5.6235 26.7739C5.24242 26.6195 4.75835 26.501 4.17128 26.4186C3.61511 26.3362 3.12588 26.2126 2.70361 26.0478C2.28133 25.8727 1.926 25.6565 1.63761 25.399C1.35953 25.1312 1.14839 24.8222 1.0042 24.472C0.860004 24.1115 0.787908 23.7099 0.787908 23.267C0.787908 22.5975 0.957849 22.0259 1.29773 21.5521C1.64791 21.0783 2.11654 20.7179 2.70361 20.4707C3.29068 20.2235 3.93954 20.0999 4.6502 20.0999C5.31967 20.0999 5.93763 20.2029 6.5041 20.4089C7.08087 20.6046 7.5495 20.8569 7.90998 21.1659C8.20866 21.4028 8.35801 21.6757 8.35801 21.9847C8.35801 22.2113 8.27046 22.4173 8.09537 22.6027C7.92028 22.7881 7.71429 22.8808 7.4774 22.8808C7.32291 22.8808 7.18387 22.8344 7.06027 22.7417C6.89548 22.5975 6.67405 22.4636 6.39596 22.34C6.11787 22.2061 5.82434 22.098 5.51536 22.0156C5.20637 21.9229 4.91799 21.8766 4.6502 21.8766C4.20733 21.8766 3.8314 21.9332 3.52241 22.0465C3.22373 22.1598 2.99714 22.3143 2.84265 22.51C2.68816 22.7057 2.61091 22.9322 2.61091 23.1897C2.61091 23.4987 2.69846 23.7562 2.87355 23.9622C3.05894 24.1579 3.32157 24.3175 3.66146 24.4411C4.00134 24.5544 4.40817 24.6574 4.88194 24.7501C5.49991 24.8634 6.04063 24.9973 6.5041 25.1518C6.97788 25.3063 7.36926 25.5071 7.67824 25.7543C7.98723 25.9912 8.21896 26.295 8.37346 26.6658C8.52795 27.0263 8.60519 27.4692 8.60519 27.9944C8.60519 28.6639 8.4198 29.2407 8.04902 29.7247C7.67824 30.2088 7.18902 30.5796 6.58135 30.8371C5.98398 31.0946 5.33512 31.2233 4.63475 31.2233ZM13.8993 22.649C14.4864 22.649 14.9962 22.7108 15.4288 22.8344C15.8717 22.958 16.2115 23.1331 16.4484 23.3597C16.6956 23.576 16.8192 23.8386 16.8192 24.1476C16.8192 24.3536 16.7574 24.5493 16.6338 24.7347C16.5102 24.9097 16.33 24.9973 16.0931 24.9973C15.9283 24.9973 15.7893 24.9767 15.676 24.9355C15.573 24.884 15.4803 24.8222 15.3979 24.7501C15.3155 24.678 15.2176 24.6111 15.1043 24.5493C15.0014 24.4875 14.8417 24.4411 14.6254 24.4102C14.4194 24.369 14.2649 24.3484 14.1619 24.3484C13.6367 24.3484 13.1886 24.4617 12.8179 24.6883C12.4574 24.9149 12.1793 25.2239 11.9836 25.6153C11.7879 25.9963 11.6901 26.4392 11.6901 26.9439C11.6901 27.4383 11.7879 27.8811 11.9836 28.2725C12.1896 28.6536 12.4677 28.9574 12.8179 29.184C13.1783 29.4106 13.5903 29.5239 14.0538 29.5239C14.3113 29.5239 14.5327 29.5085 14.7181 29.4776C14.9035 29.4467 15.058 29.4003 15.1816 29.3385C15.3258 29.2561 15.4545 29.1686 15.5678 29.0759C15.6811 28.9832 15.8511 28.9368 16.0776 28.9368C16.3454 28.9368 16.5514 29.0244 16.6956 29.1995C16.8398 29.3643 16.9119 29.5702 16.9119 29.8174C16.9119 30.0749 16.7677 30.3118 16.4793 30.5281C16.1909 30.7341 15.8099 30.904 15.3361 31.0379C14.8726 31.1615 14.3679 31.2233 13.8221 31.2233C13.0084 31.2233 12.3029 31.0379 11.7055 30.6671C11.1082 30.2861 10.6447 29.7711 10.3151 29.1222C9.99582 28.4734 9.83618 27.7472 9.83618 26.9439C9.83618 26.0993 10.0061 25.3578 10.346 24.7192C10.6962 24.0703 11.1751 23.5657 11.7828 23.2052C12.4007 22.8344 13.1063 22.649 13.8993 22.649ZM22.59 22.649C23.3315 22.649 23.8928 22.8087 24.2739 23.1279C24.6653 23.4472 24.9331 23.8746 25.0773 24.4102C25.2215 24.9355 25.2936 25.5226 25.2936 26.1714V30.1264C25.2936 30.3942 25.206 30.6208 25.0309 30.8062C24.8558 30.9813 24.6344 31.0688 24.3666 31.0688C24.0988 31.0688 23.8774 30.9813 23.7023 30.8062C23.5272 30.6208 23.4397 30.3942 23.4397 30.1264V26.1714C23.4397 25.8315 23.3985 25.5277 23.3161 25.2599C23.2337 24.9818 23.0843 24.7604 22.868 24.5956C22.6518 24.4308 22.3428 24.3484 21.9411 24.3484C21.5497 24.3484 21.215 24.4308 20.9369 24.5956C20.6588 24.7604 20.4477 24.9818 20.3035 25.2599C20.1696 25.5277 20.1026 25.8315 20.1026 26.1714V30.1264C20.1026 30.3942 20.0151 30.6208 19.84 30.8062C19.6649 30.9813 19.4435 31.0688 19.1757 31.0688C18.9079 31.0688 18.6865 30.9813 18.5114 30.8062C18.3363 30.6208 18.2487 30.3942 18.2487 30.1264V20.5788C18.2487 20.311 18.3363 20.0896 18.5114 19.9145C18.6865 19.7291 18.9079 19.6364 19.1757 19.6364C19.4435 19.6364 19.6649 19.7291 19.84 19.9145C20.0151 20.0896 20.1026 20.311 20.1026 20.5788V24.4102L19.8709 24.3639C19.9636 24.1888 20.0923 24.0034 20.2571 23.8077C20.4219 23.6017 20.6228 23.4112 20.8596 23.2361C21.0965 23.061 21.3592 22.922 21.6476 22.819C21.9359 22.7057 22.2501 22.649 22.59 22.649ZM31.1942 31.2233C30.3187 31.2233 29.5566 31.0431 28.9077 30.6826C28.2691 30.3118 27.7748 29.8123 27.4246 29.184C27.0847 28.5558 26.9148 27.8451 26.9148 27.052C26.9148 26.1251 27.1002 25.3372 27.4709 24.6883C27.852 24.0291 28.3464 23.5245 28.9541 23.1743C29.5617 22.8241 30.2054 22.649 30.8852 22.649C31.4105 22.649 31.9048 22.7572 32.3683 22.9734C32.8421 23.1897 33.2592 23.4884 33.6197 23.8695C33.9802 24.2403 34.2634 24.6729 34.4694 25.1672C34.6857 25.6616 34.7938 26.1869 34.7938 26.743C34.7835 26.9902 34.6857 27.1911 34.5003 27.3456C34.3149 27.5001 34.0986 27.5773 33.8514 27.5773H27.9499L27.4864 26.0324H33.1562L32.8163 26.3414V25.9242C32.7957 25.6256 32.6876 25.3578 32.4919 25.1209C32.3065 24.884 32.0696 24.6986 31.7813 24.5647C31.5032 24.4205 31.2045 24.3484 30.8852 24.3484C30.5762 24.3484 30.2878 24.3896 30.02 24.472C29.7523 24.5544 29.5205 24.6935 29.3248 24.8891C29.1291 25.0848 28.9747 25.3475 28.8614 25.6771C28.7481 26.0066 28.6914 26.4238 28.6914 26.9284C28.6914 27.4846 28.8047 27.9584 29.0313 28.3498C29.2682 28.7308 29.5669 29.0244 29.9274 29.2304C30.2981 29.4261 30.6895 29.5239 31.1015 29.5239C31.4826 29.5239 31.7864 29.493 32.013 29.4312C32.2396 29.3694 32.4198 29.2973 32.5537 29.2149C32.6979 29.1222 32.8266 29.045 32.9399 28.9832C33.1253 28.8905 33.3004 28.8441 33.4652 28.8441C33.6918 28.8441 33.8772 28.9214 34.0214 29.0759C34.1759 29.2304 34.2531 29.4106 34.2531 29.6166C34.2531 29.8947 34.1089 30.147 33.8205 30.3736C33.5528 30.6002 33.1768 30.801 32.6928 30.9761C32.2087 31.1409 31.7092 31.2233 31.1942 31.2233ZM40.8321 22.649C41.5942 22.649 42.171 22.8087 42.5624 23.1279C42.964 23.4472 43.237 23.8746 43.3812 24.4102C43.5357 24.9355 43.6129 25.5226 43.6129 26.1714V30.1264C43.6129 30.3942 43.5254 30.6208 43.3503 30.8062C43.1752 30.9813 42.9537 31.0688 42.686 31.0688C42.4182 31.0688 42.1967 30.9813 42.0216 30.8062C41.8466 30.6208 41.759 30.3942 41.759 30.1264V26.1714C41.759 25.8315 41.7127 25.5277 41.62 25.2599C41.5376 24.9818 41.3831 24.7604 41.1565 24.5956C40.9299 24.4308 40.6055 24.3484 40.1832 24.3484C39.7712 24.3484 39.421 24.4308 39.1326 24.5956C38.8546 24.7604 38.6383 24.9818 38.4838 25.2599C38.3396 25.5277 38.2675 25.8315 38.2675 26.1714V30.1264C38.2675 30.3942 38.1799 30.6208 38.0049 30.8062C37.8298 30.9813 37.6083 31.0688 37.3405 31.0688C37.0728 31.0688 36.8513 30.9813 36.6762 30.8062C36.5011 30.6208 36.4136 30.3942 36.4136 30.1264V23.7459C36.4136 23.4781 36.5011 23.2567 36.6762 23.0816C36.8513 22.8962 37.0728 22.8035 37.3405 22.8035C37.6083 22.8035 37.8298 22.8962 38.0049 23.0816C38.1799 23.2567 38.2675 23.4781 38.2675 23.7459V24.4102L38.0358 24.3639C38.1284 24.1888 38.2623 24.0034 38.4374 23.8077C38.6125 23.6017 38.8185 23.4112 39.0554 23.2361C39.2923 23.061 39.5601 22.922 39.8588 22.819C40.1574 22.7057 40.4819 22.649 40.8321 22.649ZM52.3835 22.649C52.6512 22.649 52.8727 22.7366 53.0478 22.9117C53.2229 23.0867 53.3104 23.3133 53.3104 23.5914V30.1264C53.3104 30.3942 53.2229 30.6208 53.0478 30.8062C52.8727 30.9813 52.6512 31.0688 52.3835 31.0688C52.1157 31.0688 51.8942 30.9813 51.7191 30.8062C51.544 30.6208 51.4565 30.3942 51.4565 30.1264V29.3694L51.7964 29.5085C51.7964 29.6423 51.7243 29.8071 51.5801 30.0028C51.4359 30.1882 51.2402 30.3736 50.993 30.559C50.7458 30.7444 50.4523 30.904 50.1124 31.0379C49.7828 31.1615 49.4224 31.2233 49.031 31.2233C48.3203 31.2233 47.6766 31.0431 47.0998 30.6826C46.5231 30.3118 46.0647 29.8071 45.7249 29.1686C45.3953 28.5197 45.2305 27.7781 45.2305 26.9439C45.2305 26.0993 45.3953 25.3578 45.7249 24.7192C46.0647 24.0703 46.5179 23.5657 47.0844 23.2052C47.6509 22.8344 48.2791 22.649 48.9692 22.649C49.4121 22.649 49.8189 22.716 50.1897 22.8499C50.5605 22.9837 50.8797 23.1537 51.1475 23.3597C51.4256 23.5657 51.6367 23.7768 51.7809 23.9931C51.9354 24.1991 52.0127 24.3742 52.0127 24.5184L51.4565 24.7192V23.5914C51.4565 23.3236 51.544 23.1022 51.7191 22.9271C51.8942 22.7417 52.1157 22.649 52.3835 22.649ZM49.2627 29.5239C49.7159 29.5239 50.1124 29.4106 50.4523 29.184C50.7922 28.9574 51.0548 28.6484 51.2402 28.2571C51.4359 27.8657 51.5338 27.428 51.5338 26.9439C51.5338 26.4495 51.4359 26.0066 51.2402 25.6153C51.0548 25.2239 50.7922 24.9149 50.4523 24.6883C50.1124 24.4617 49.7159 24.3484 49.2627 24.3484C48.8198 24.3484 48.4285 24.4617 48.0886 24.6883C47.7487 24.9149 47.4809 25.2239 47.2852 25.6153C47.0998 26.0066 47.0071 26.4495 47.0071 26.9439C47.0071 27.428 47.0998 27.8657 47.2852 28.2571C47.4809 28.6484 47.7487 28.9574 48.0886 29.184C48.4285 29.4106 48.8198 29.5239 49.2627 29.5239ZM57.666 21.8148C57.666 22.1546 57.5681 22.4997 57.3725 22.8499C57.1871 23.1897 56.9399 23.4781 56.6309 23.715C56.3322 23.9416 56.0129 24.0549 55.673 24.0549C55.5597 24.0549 55.4362 24.0085 55.3023 23.9158C55.1787 23.8232 55.1169 23.6635 55.1169 23.4369C55.1169 23.2 55.189 23.061 55.3332 23.0198C55.4877 22.9683 55.6164 22.9168 55.7194 22.8653C55.8533 22.7932 55.9563 22.7108 56.0284 22.6181C56.1108 22.5151 56.152 22.3915 56.152 22.2473C56.152 22.134 56.0953 22.0362 55.982 21.9538C55.879 21.8611 55.74 21.8148 55.5649 21.8148C55.5031 21.8148 55.431 21.8251 55.3486 21.8457C55.2662 21.856 55.1941 21.8817 55.1323 21.9229C55.0293 21.8714 54.9366 21.8096 54.8542 21.7375C54.7821 21.6551 54.7461 21.5264 54.7461 21.3513C54.7461 21.032 54.8903 20.7591 55.1787 20.5325C55.4774 20.2956 55.8224 20.1771 56.2138 20.1771C56.6566 20.1771 57.0068 20.3265 57.2643 20.6252C57.5321 20.9239 57.666 21.3204 57.666 21.8148ZM59.0933 29.7865C58.9904 29.6423 58.944 29.457 58.9543 29.2304C58.9646 29.0038 59.0985 28.8081 59.356 28.6433C59.5208 28.5403 59.6959 28.4991 59.8813 28.5197C60.0666 28.53 60.2469 28.6227 60.422 28.7978C60.7207 29.0965 61.0348 29.3282 61.3644 29.493C61.694 29.6578 62.1059 29.7402 62.6003 29.7402C62.7548 29.7299 62.9247 29.7093 63.1101 29.6784C63.2955 29.6372 63.4552 29.5548 63.5891 29.4312C63.7332 29.2973 63.8053 29.0965 63.8053 28.8287C63.8053 28.6021 63.7281 28.4219 63.5736 28.288C63.4191 28.1541 63.2131 28.0408 62.9556 27.9481C62.7085 27.8554 62.4304 27.7678 62.1214 27.6854C61.8021 27.5928 61.4725 27.4898 61.1326 27.3765C60.8031 27.2632 60.4992 27.119 60.2211 26.9439C59.9431 26.7585 59.7165 26.5165 59.5414 26.2178C59.3663 25.9191 59.2787 25.5432 59.2787 25.09C59.2787 24.575 59.4229 24.1373 59.7113 23.7768C59.9997 23.4163 60.3705 23.1382 60.8237 22.9425C61.2871 22.7469 61.7712 22.649 62.2759 22.649C62.5952 22.649 62.9299 22.6902 63.2801 22.7726C63.6303 22.8447 63.965 22.9683 64.2843 23.1434C64.6036 23.3082 64.8713 23.5296 65.0876 23.8077C65.2009 23.9622 65.2679 24.1476 65.2885 24.3639C65.3091 24.5802 65.2112 24.7759 64.9949 24.9509C64.8404 25.0745 64.6602 25.1312 64.4542 25.1209C64.2482 25.1003 64.0783 25.0282 63.9444 24.9046C63.7693 24.678 63.5324 24.4978 63.2337 24.3639C62.9453 24.23 62.6106 24.163 62.2295 24.163C62.075 24.163 61.9051 24.1836 61.7197 24.2248C61.5446 24.2557 61.3901 24.333 61.2562 24.4566C61.1223 24.5699 61.0554 24.7553 61.0554 25.0127C61.0554 25.2496 61.1326 25.4402 61.2871 25.5844C61.4416 25.7183 61.6476 25.8315 61.9051 25.9242C62.1729 26.0066 62.4561 26.089 62.7548 26.1714C63.0638 26.2538 63.3779 26.3517 63.6972 26.465C64.0165 26.5783 64.31 26.7276 64.5778 26.913C64.8456 27.0984 65.0619 27.3404 65.2267 27.6391C65.3915 27.9275 65.4739 28.2983 65.4739 28.7514C65.4739 29.2767 65.3194 29.7247 65.0104 30.0955C64.7014 30.4663 64.3152 30.7495 63.8517 30.9452C63.3882 31.1306 62.9144 31.2233 62.4304 31.2233C61.8227 31.2233 61.215 31.1203 60.6074 30.9143C59.9997 30.698 59.495 30.3221 59.0933 29.7865Z" fill="#8C4C3E"/>
<path d="M107.119 9.27016C107.119 8.39843 106.823 7.55252 106.281 6.86999C105.739 6.18746 104.982 5.70846 104.132 5.51086L103.154 1.95755C102.975 1.38298 102.615 0.881738 102.128 0.528945C101.641 0.176151 101.052 -0.00920232 100.45 0.00065776H78.7958C78.1965 -0.0124982 77.6096 0.172013 77.1256 0.525698C76.6416 0.879384 76.2875 1.38257 76.118 1.95755L75.1395 5.51086C74.2595 5.73279 73.4826 6.25042 72.9388 6.97702C72.395 7.70362 72.1175 8.59504 72.1527 9.5019C72.1506 10.3247 72.4155 11.1259 72.9077 11.7852C73.3998 12.4445 74.0927 12.9263 74.8821 13.1582L75.1395 20.2906C74.7273 20.3575 74.3478 20.5563 74.0581 20.857C73.8761 21.049 73.7345 21.2755 73.6416 21.5232C73.5487 21.7709 73.5065 22.0347 73.5174 22.299L74.1353 37.1302C74.1541 37.5859 74.3317 38.0208 74.6374 38.3594C74.9431 38.698 75.3575 38.919 75.809 38.9841L76.015 44.7003C76.068 46.4309 76.7949 48.0723 78.0406 49.2748C79.2864 50.4773 80.9525 51.1456 82.6839 51.1374H96.5624C98.2979 51.1511 99.9698 50.4853 101.221 49.2824C102.472 48.0795 103.203 46.4349 103.257 44.7003L103.463 38.9841C103.91 38.913 104.318 38.6895 104.618 38.3516C104.919 38.0136 105.093 37.582 105.111 37.1302L105.729 22.299C105.74 22.0347 105.698 21.7709 105.605 21.5232C105.512 21.2755 105.37 21.049 105.188 20.857C104.909 20.5566 104.537 20.3574 104.132 20.2906L104.39 13.1582C105.205 12.8939 105.912 12.3717 106.404 11.6704C106.897 10.969 107.148 10.1266 107.119 9.27016ZM78.7958 2.57552L100.656 2.65277L101.429 5.40787H77.8946L78.7958 2.57552ZM100.682 44.623C100.65 45.689 100.2 46.6994 99.429 47.4365C98.6583 48.1735 97.6287 48.5779 96.5624 48.5626H82.6839C81.6214 48.5731 80.5973 48.1663 79.8317 47.4296C79.0661 46.6929 78.6202 45.6851 78.5899 44.623L78.3839 39.0098H100.888L100.682 44.623ZM84.2288 29.6373C84.2288 28.5679 84.5459 27.5225 85.1401 26.6332C85.7342 25.744 86.5787 25.051 87.5668 24.6417C88.5548 24.2325 89.642 24.1254 90.6909 24.334C91.7398 24.5427 92.7033 25.0576 93.4595 25.8139C94.2157 26.5701 94.7307 27.5335 94.9393 28.5824C95.148 29.6313 95.0409 30.7185 94.6316 31.7066C94.2224 32.6946 93.5293 33.5391 92.6401 34.1333C91.7509 34.7274 90.7055 35.0445 89.636 35.0445C88.2019 35.0445 86.8266 34.4749 85.8125 33.4608C84.7985 32.4468 84.2288 31.0714 84.2288 29.6373ZM101.558 20.2391H77.7144L77.4569 13.3642H101.789L101.558 20.2391ZM103.257 10.7893H76.015C75.8275 10.783 75.6435 10.7376 75.4747 10.6559C75.3058 10.5742 75.156 10.4581 75.0347 10.315C74.9134 10.1719 74.8235 10.005 74.7706 9.82508C74.7177 9.64513 74.703 9.45611 74.7276 9.27016C74.7276 8.92872 74.8632 8.60125 75.1046 8.35981C75.3461 8.11837 75.6735 7.98273 76.015 7.98273H103.257C103.444 7.99133 103.627 8.03831 103.794 8.12074C103.962 8.20318 104.111 8.3193 104.232 8.46186C104.353 8.60441 104.443 8.77035 104.496 8.94929C104.55 9.12824 104.567 9.31636 104.544 9.5019C104.544 9.84335 104.409 10.1708 104.167 10.4123C103.926 10.6537 103.598 10.7893 103.257 10.7893Z" fill="#8C4C3E"/>
<path d="M121 20.7797C121.268 20.9136 121.422 21.1247 121.464 21.4131C121.515 21.7015 121.443 21.9641 121.247 22.201C121.113 22.3864 120.938 22.4894 120.722 22.51C120.516 22.5306 120.305 22.4894 120.089 22.3864C119.841 22.2731 119.579 22.1855 119.301 22.1237C119.033 22.0619 118.75 22.031 118.451 22.031C117.895 22.031 117.395 22.1186 116.952 22.2937C116.52 22.4688 116.149 22.7211 115.84 23.0507C115.531 23.37 115.294 23.7511 115.129 24.1939C114.975 24.6368 114.898 25.126 114.898 25.6616C114.898 26.2899 114.985 26.8357 115.16 27.2992C115.346 27.7627 115.598 28.1489 115.917 28.4579C116.237 28.7669 116.612 28.9986 117.045 29.1531C117.478 29.2973 117.946 29.3694 118.451 29.3694C118.729 29.3694 119.007 29.3437 119.285 29.2922C119.563 29.2407 119.831 29.148 120.089 29.0141C120.305 28.9111 120.516 28.875 120.722 28.9059C120.938 28.9368 121.118 29.045 121.263 29.2304C121.469 29.4879 121.541 29.7556 121.479 30.0337C121.427 30.3015 121.273 30.4972 121.015 30.6208C120.748 30.7547 120.47 30.868 120.181 30.9607C119.903 31.0431 119.62 31.1049 119.332 31.1461C119.043 31.1976 118.75 31.2233 118.451 31.2233C117.709 31.2233 117.004 31.1049 116.334 30.868C115.675 30.6311 115.083 30.2809 114.558 29.8174C114.043 29.354 113.636 28.7772 113.337 28.0871C113.039 27.3868 112.889 26.5783 112.889 25.6616C112.889 24.8685 113.023 24.1373 113.291 23.4678C113.569 22.7984 113.955 22.2216 114.45 21.7375C114.954 21.2431 115.546 20.8621 116.226 20.5943C116.906 20.3162 117.648 20.1771 118.451 20.1771C118.904 20.1771 119.347 20.2286 119.78 20.3316C120.212 20.4346 120.619 20.584 121 20.7797ZM130.979 26.9439C130.979 27.7884 130.789 28.5352 130.408 29.184C130.037 29.8226 129.532 30.3221 128.894 30.6826C128.266 31.0431 127.56 31.2233 126.777 31.2233C125.995 31.2233 125.284 31.0431 124.645 30.6826C124.017 30.3221 123.512 29.8226 123.131 29.184C122.761 28.5352 122.575 27.7884 122.575 26.9439C122.575 26.0993 122.761 25.3578 123.131 24.7192C123.512 24.0703 124.017 23.5657 124.645 23.2052C125.284 22.8344 125.995 22.649 126.777 22.649C127.56 22.649 128.266 22.8344 128.894 23.2052C129.532 23.5657 130.037 24.0703 130.408 24.7192C130.789 25.3578 130.979 26.0993 130.979 26.9439ZM129.126 26.9439C129.126 26.4186 129.017 25.9654 128.801 25.5844C128.595 25.193 128.312 24.8891 127.951 24.6729C127.601 24.4566 127.21 24.3484 126.777 24.3484C126.345 24.3484 125.948 24.4566 125.588 24.6729C125.238 24.8891 124.954 25.193 124.738 25.5844C124.532 25.9654 124.429 26.4186 124.429 26.9439C124.429 27.4589 124.532 27.912 124.738 28.3034C124.954 28.6845 125.238 28.9832 125.588 29.1995C125.948 29.4158 126.345 29.5239 126.777 29.5239C127.21 29.5239 127.601 29.4158 127.951 29.1995C128.312 28.9832 128.595 28.6845 128.801 28.3034C129.017 27.912 129.126 27.4589 129.126 26.9439ZM136.851 19.6364C137.077 19.6364 137.299 19.6673 137.515 19.7291C137.731 19.7909 137.911 19.8939 138.056 20.0381C138.2 20.172 138.272 20.3522 138.272 20.5788C138.272 20.8363 138.195 21.0423 138.04 21.1968C137.896 21.341 137.726 21.4131 137.53 21.4131C137.438 21.4131 137.299 21.3925 137.113 21.3513C136.928 21.2998 136.748 21.274 136.572 21.274C136.315 21.274 136.114 21.3307 135.97 21.444C135.836 21.5573 135.743 21.6912 135.692 21.8457C135.64 21.9899 135.615 22.1186 135.615 22.2319V30.1264C135.615 30.3942 135.527 30.6208 135.352 30.8062C135.177 30.9813 134.955 31.0688 134.688 31.0688C134.42 31.0688 134.198 30.9813 134.023 30.8062C133.848 30.6208 133.761 30.3942 133.761 30.1264V22.2473C133.761 21.5161 134.018 20.8981 134.533 20.3934C135.048 19.8888 135.821 19.6364 136.851 19.6364ZM137.02 22.958C137.268 22.958 137.474 23.0404 137.638 23.2052C137.803 23.3597 137.886 23.5605 137.886 23.8077C137.886 24.0549 137.803 24.2609 137.638 24.4257C137.474 24.5802 137.268 24.6574 137.02 24.6574H132.926C132.679 24.6574 132.473 24.5802 132.308 24.4257C132.144 24.2609 132.061 24.0549 132.061 23.8077C132.061 23.5605 132.144 23.3597 132.308 23.2052C132.473 23.0404 132.679 22.958 132.926 22.958H137.02ZM143.602 19.6364C143.828 19.6364 144.05 19.6673 144.266 19.7291C144.482 19.7909 144.663 19.8939 144.807 20.0381C144.951 20.172 145.023 20.3522 145.023 20.5788C145.023 20.8363 144.946 21.0423 144.791 21.1968C144.647 21.341 144.477 21.4131 144.282 21.4131C144.189 21.4131 144.05 21.3925 143.864 21.3513C143.679 21.2998 143.499 21.274 143.324 21.274C143.066 21.274 142.865 21.3307 142.721 21.444C142.587 21.5573 142.495 21.6912 142.443 21.8457C142.392 21.9899 142.366 22.1186 142.366 22.2319V30.1264C142.366 30.3942 142.278 30.6208 142.103 30.8062C141.928 30.9813 141.707 31.0688 141.439 31.0688C141.171 31.0688 140.95 30.9813 140.775 30.8062C140.6 30.6208 140.512 30.3942 140.512 30.1264V22.2473C140.512 21.5161 140.769 20.8981 141.284 20.3934C141.799 19.8888 142.572 19.6364 143.602 19.6364ZM143.772 22.958C144.019 22.958 144.225 23.0404 144.39 23.2052C144.555 23.3597 144.637 23.5605 144.637 23.8077C144.637 24.0549 144.555 24.2609 144.39 24.4257C144.225 24.5802 144.019 24.6574 143.772 24.6574H139.678C139.431 24.6574 139.225 24.5802 139.06 24.4257C138.895 24.2609 138.813 24.0549 138.813 23.8077C138.813 23.5605 138.895 23.3597 139.06 23.2052C139.225 23.0404 139.431 22.958 139.678 22.958H143.772ZM149.998 31.2233C149.123 31.2233 148.361 31.0431 147.712 30.6826C147.073 30.3118 146.579 29.8123 146.229 29.184C145.889 28.5558 145.719 27.8451 145.719 27.052C145.719 26.1251 145.904 25.3372 146.275 24.6883C146.656 24.0291 147.15 23.5245 147.758 23.1743C148.366 22.8241 149.009 22.649 149.689 22.649C150.214 22.649 150.709 22.7572 151.172 22.9734C151.646 23.1897 152.063 23.4884 152.424 23.8695C152.784 24.2403 153.067 24.6729 153.273 25.1672C153.49 25.6616 153.598 26.1869 153.598 26.743C153.587 26.9902 153.49 27.1911 153.304 27.3456C153.119 27.5001 152.903 27.5773 152.655 27.5773H146.754L146.29 26.0324H151.96L151.62 26.3414V25.9242C151.6 25.6256 151.492 25.3578 151.296 25.1209C151.11 24.884 150.874 24.6986 150.585 24.5647C150.307 24.4205 150.008 24.3484 149.689 24.3484C149.38 24.3484 149.092 24.3896 148.824 24.472C148.556 24.5544 148.324 24.6935 148.129 24.8891C147.933 25.0848 147.779 25.3475 147.665 25.6771C147.552 26.0066 147.495 26.4238 147.495 26.9284C147.495 27.4846 147.609 27.9584 147.835 28.3498C148.072 28.7308 148.371 29.0244 148.731 29.2304C149.102 29.4261 149.493 29.5239 149.905 29.5239C150.287 29.5239 150.59 29.493 150.817 29.4312C151.044 29.3694 151.224 29.2973 151.358 29.2149C151.502 29.1222 151.631 29.045 151.744 28.9832C151.929 28.8905 152.104 28.8441 152.269 28.8441C152.496 28.8441 152.681 28.9214 152.825 29.0759C152.98 29.2304 153.057 29.4106 153.057 29.6166C153.057 29.8947 152.913 30.147 152.624 30.3736C152.357 30.6002 151.981 30.801 151.497 30.9761C151.013 31.1409 150.513 31.2233 149.998 31.2233ZM159.111 31.2233C158.235 31.2233 157.473 31.0431 156.824 30.6826C156.186 30.3118 155.691 29.8123 155.341 29.184C155.001 28.5558 154.831 27.8451 154.831 27.052C154.831 26.1251 155.017 25.3372 155.387 24.6883C155.769 24.0291 156.263 23.5245 156.871 23.1743C157.478 22.8241 158.122 22.649 158.802 22.649C159.327 22.649 159.821 22.7572 160.285 22.9734C160.759 23.1897 161.176 23.4884 161.536 23.8695C161.897 24.2403 162.18 24.6729 162.386 25.1672C162.602 25.6616 162.71 26.1869 162.71 26.743C162.7 26.9902 162.602 27.1911 162.417 27.3456C162.231 27.5001 162.015 27.5773 161.768 27.5773H155.866L155.403 26.0324H161.073L160.733 26.3414V25.9242C160.712 25.6256 160.604 25.3578 160.408 25.1209C160.223 24.884 159.986 24.6986 159.698 24.5647C159.42 24.4205 159.121 24.3484 158.802 24.3484C158.493 24.3484 158.204 24.3896 157.937 24.472C157.669 24.5544 157.437 24.6935 157.241 24.8891C157.046 25.0848 156.891 25.3475 156.778 25.6771C156.665 26.0066 156.608 26.4238 156.608 26.9284C156.608 27.4846 156.721 27.9584 156.948 28.3498C157.185 28.7308 157.483 29.0244 157.844 29.2304C158.215 29.4261 158.606 29.5239 159.018 29.5239C159.399 29.5239 159.703 29.493 159.93 29.4312C160.156 29.3694 160.336 29.2973 160.47 29.2149C160.614 29.1222 160.743 29.045 160.856 28.9832C161.042 28.8905 161.217 28.8441 161.382 28.8441C161.608 28.8441 161.794 28.9214 161.938 29.0759C162.092 29.2304 162.17 29.4106 162.17 29.6166C162.17 29.8947 162.025 30.147 161.737 30.3736C161.469 30.6002 161.093 30.801 160.609 30.9761C160.125 31.1409 159.626 31.2233 159.111 31.2233Z" fill="#8C4C3E"/>
</svg>
