<svg width="44" height="33" viewBox="0 0 44 33" fill="none" xmlns="http://www.w3.org/2000/svg">
<path d="M3.92758 20.537C3.46409 20.537 3.04695 20.4808 2.67615 20.3682C2.30536 20.249 1.95112 20.0437 1.61343 19.7524C1.52736 19.6796 1.46114 19.5968 1.41479 19.5041C1.36844 19.4114 1.34527 19.3187 1.34527 19.226C1.34527 19.0737 1.39824 18.9413 1.50418 18.8287C1.61674 18.7095 1.75579 18.65 1.92132 18.65C2.04713 18.65 2.15969 18.6897 2.25901 18.7691C2.51062 18.9744 2.75892 19.13 3.00391 19.2359C3.25552 19.3419 3.56341 19.3949 3.92758 19.3949C4.17257 19.3949 4.3977 19.3584 4.60296 19.2856C4.80822 19.2061 4.97375 19.1035 5.09956 18.9777C5.22536 18.8453 5.28827 18.6963 5.28827 18.5308C5.28827 18.3321 5.22867 18.1633 5.10949 18.0242C4.99031 17.8852 4.80822 17.7693 4.56323 17.6766C4.31824 17.5773 4.00704 17.5012 3.62962 17.4482C3.27207 17.3952 2.95756 17.3158 2.68609 17.2098C2.41461 17.0973 2.18618 16.9582 2.00078 16.7927C1.822 16.6205 1.68627 16.4219 1.59357 16.1968C1.50087 15.965 1.45452 15.7068 1.45452 15.4221C1.45452 14.9917 1.56377 14.6242 1.78228 14.3196C2.0074 14.015 2.30867 13.7833 2.68609 13.6244C3.0635 13.4655 3.48065 13.386 3.93752 13.386C4.3679 13.386 4.76518 13.4522 5.12935 13.5846C5.50015 13.7105 5.80142 13.8727 6.03316 14.0713C6.22518 14.2236 6.32119 14.3991 6.32119 14.5977C6.32119 14.7434 6.26491 14.8758 6.15235 14.995C6.03979 15.1142 5.90736 15.1738 5.75507 15.1738C5.65575 15.1738 5.56636 15.144 5.48691 15.0844C5.38096 14.9917 5.23861 14.9056 5.05983 14.8261C4.88105 14.7401 4.69235 14.6705 4.49371 14.6176C4.29507 14.558 4.10967 14.5282 3.93752 14.5282C3.6528 14.5282 3.41112 14.5646 3.21248 14.6374C3.02046 14.7103 2.87479 14.8096 2.77547 14.9354C2.67615 15.0612 2.6265 15.2069 2.6265 15.3724C2.6265 15.571 2.68278 15.7366 2.79534 15.869C2.91452 15.9948 3.08337 16.0974 3.30187 16.1769C3.52037 16.2497 3.78192 16.3159 4.0865 16.3755C4.48378 16.4484 4.83139 16.5344 5.12935 16.6338C5.43393 16.7331 5.68554 16.8622 5.88418 17.0211C6.08282 17.1734 6.2318 17.3687 6.33112 17.6071C6.43044 17.8388 6.4801 18.1236 6.4801 18.4612C6.4801 18.8916 6.36092 19.2624 6.12255 19.5736C5.88418 19.8848 5.56967 20.1232 5.17901 20.2887C4.79498 20.4543 4.37783 20.537 3.92758 20.537Z" fill="#8C4C3E"/>
<path d="M32.74 5.95961C32.7396 5.39919 32.5497 4.85537 32.201 4.41659C31.8524 3.9778 31.3656 3.66986 30.8198 3.54283L30.1907 1.25847C30.0759 0.889088 29.8445 0.566853 29.5312 0.340048C29.2178 0.113244 28.8394 -0.00591599 28.4526 0.000422861H14.5313C14.146 -0.00803484 13.7687 0.110584 13.4575 0.337961C13.1464 0.565339 12.9188 0.888828 12.8098 1.25847L12.1808 3.54283C11.615 3.6855 11.1155 4.01827 10.7659 4.48539C10.4163 4.95251 10.2379 5.52559 10.2606 6.10859C10.2592 6.63752 10.4295 7.15262 10.7459 7.57648C11.0623 8.00035 11.5077 8.31008 12.0152 8.45916L12.1808 13.0444C11.9157 13.0874 11.6718 13.2152 11.4855 13.4086C11.3685 13.532 11.2775 13.6776 11.2178 13.8369C11.1581 13.9961 11.1309 14.1657 11.1379 14.3356L11.5352 23.8703C11.5472 24.1633 11.6614 24.4428 11.8579 24.6605C12.0544 24.8782 12.3209 25.0203 12.6111 25.0621L12.7436 28.737C12.7776 29.8495 13.2449 30.9048 14.0458 31.6778C14.8467 32.4509 15.9178 32.8805 17.0309 32.8753H25.9531C27.0688 32.884 28.1436 32.456 28.9479 31.6827C29.7521 30.9094 30.222 29.8521 30.257 28.737L30.3894 25.0621C30.6765 25.0165 30.9389 24.8728 31.132 24.6555C31.3252 24.4382 31.4371 24.1608 31.4488 23.8703L31.8461 14.3356C31.8531 14.1657 31.8259 13.9961 31.7662 13.8369C31.7065 13.6776 31.6154 13.532 31.4985 13.4086C31.3188 13.2154 31.0801 13.0874 30.8198 13.0444L30.9853 8.45916C31.5093 8.28924 31.9639 7.95352 32.2804 7.50264C32.5969 7.05177 32.7582 6.51019 32.74 5.95961ZM14.5313 1.65575L28.5851 1.70541L29.0817 3.47662H13.952L14.5313 1.65575ZM28.6016 28.6873C28.5808 29.3725 28.2915 30.0222 27.796 30.496C27.3005 30.9698 26.6386 31.2298 25.9531 31.2199H17.0309C16.3478 31.2267 15.6894 30.9652 15.1972 30.4916C14.705 30.0179 14.4184 29.3701 14.3989 28.6873L14.2665 25.0787H28.7341L28.6016 28.6873ZM18.0241 19.0533C18.0241 18.3657 18.2279 17.6937 18.6099 17.122C18.9919 16.5503 19.5348 16.1048 20.17 15.8417C20.8052 15.5786 21.5041 15.5097 22.1784 15.6439C22.8527 15.778 23.4721 16.1091 23.9583 16.5952C24.4445 17.0814 24.7755 17.7008 24.9097 18.3751C25.0438 19.0494 24.9749 19.7484 24.7118 20.3836C24.4487 21.0187 24.0032 21.5617 23.4315 21.9436C22.8599 22.3256 22.1878 22.5295 21.5003 22.5295C20.5783 22.5295 19.6941 22.1632 19.0422 21.5113C18.3903 20.8594 18.0241 19.9752 18.0241 19.0533ZM29.1644 13.0113H13.8361L13.6705 8.59159H29.3134L29.1644 13.0113ZM30.257 6.93626H12.7436C12.6231 6.93221 12.5047 6.90299 12.3962 6.85047C12.2877 6.79795 12.1913 6.72329 12.1134 6.63131C12.0354 6.53932 11.9776 6.43203 11.9435 6.31635C11.9095 6.20067 11.9001 6.07915 11.9159 5.95961C11.9159 5.7401 12.0031 5.52958 12.1583 5.37436C12.3135 5.21915 12.5241 5.13195 12.7436 5.13195H30.257C30.377 5.13747 30.4945 5.16767 30.6023 5.22067C30.7102 5.27367 30.8059 5.34832 30.8835 5.43997C30.9612 5.53161 31.0191 5.63829 31.0537 5.75333C31.0883 5.86837 31.0989 5.98931 31.0846 6.10859C31.0846 6.3281 30.9974 6.53862 30.8422 6.69384C30.687 6.84906 30.4765 6.93626 30.257 6.93626Z" fill="#8C4C3E"/>
<path d="M41.6636 13.823C41.8357 13.9091 41.935 14.0448 41.9615 14.2302C41.9946 14.4156 41.9483 14.5845 41.8225 14.7368C41.7364 14.8559 41.6238 14.9222 41.4848 14.9354C41.3524 14.9486 41.2166 14.9222 41.0776 14.8559C40.9187 14.7831 40.7498 14.7268 40.5711 14.6871C40.3989 14.6474 40.2168 14.6275 40.0248 14.6275C39.6672 14.6275 39.3461 14.6838 39.0614 14.7963C38.7833 14.9089 38.5449 15.0711 38.3463 15.283C38.1476 15.4883 37.9954 15.7333 37.8894 16.018C37.7901 16.3027 37.7404 16.6172 37.7404 16.9615C37.7404 17.3654 37.7967 17.7164 37.9093 18.0143C38.0285 18.3123 38.1907 18.5606 38.3959 18.7592C38.6012 18.9578 38.8429 19.1068 39.121 19.2061C39.3991 19.2988 39.7003 19.3452 40.0248 19.3452C40.2036 19.3452 40.3823 19.3286 40.5611 19.2955C40.7399 19.2624 40.9121 19.2028 41.0776 19.1168C41.2166 19.0505 41.3524 19.0274 41.4848 19.0472C41.6238 19.0671 41.7397 19.1366 41.8324 19.2558C41.9648 19.4213 42.0112 19.5935 41.9715 19.7723C41.9384 19.9444 41.839 20.0702 41.6735 20.1497C41.5013 20.2358 41.3226 20.3086 41.1372 20.3682C40.9584 20.4212 40.7763 20.4609 40.5909 20.4874C40.4055 20.5205 40.2168 20.537 40.0248 20.537C39.5481 20.537 39.0945 20.4609 38.6641 20.3086C38.2403 20.1563 37.8596 19.9312 37.5219 19.6332C37.1909 19.3353 36.9293 18.9645 36.7373 18.5208C36.5453 18.0706 36.4493 17.5508 36.4493 16.9615C36.4493 16.4517 36.5354 15.9816 36.7075 15.5512C36.8863 15.1208 37.1346 14.75 37.4524 14.4388C37.7769 14.121 38.1576 13.876 38.5946 13.7038C39.0316 13.5251 39.5083 13.4357 40.0248 13.4357C40.3161 13.4357 40.6008 13.4688 40.8789 13.535C41.157 13.6012 41.4186 13.6972 41.6636 13.823Z" fill="#8C4C3E"/>
</svg>
